<?xml version="1.0" encoding="utf-8"?>
<!-- Generator: Adobe Illustrator 19.1.0, SVG Export Plug-In . SVG Version: 6.00 Build 0)  -->
<svg version="1.1" id="Livello_1" xmlns="http://www.w3.org/2000/svg" xmlns:xlink="http://www.w3.org/1999/xlink" x="0px" y="0px"
	 viewBox="0 0 595.3 841.9" style="enable-background:new 0 0 595.3 841.9;" xml:space="preserve">
<style type="text/css">
	.st0{fill:#6B6B6B;}
</style>
<g>
	<path class="st0" d="M547,599.9c-2.3-0.1-4.7-0.2-7-0.2c-158.8,0-317.6,0-476.3,0c-2.1,0-4.2,0-7,0c0-11.5-0.1-22.4,0.2-33.4
		c0-0.8,2.6-2.1,4-2.1c19.3-0.2,38.6-0.2,58-0.1c36,0.1,71.9,0.3,107.9,0.4c102.3,0.2,204.6,0.3,306.9,0.4c4.4,0,8.9-0.7,13.3-1.1
		C547,575.9,547,587.9,547,599.9z"/>
	<path class="st0" d="M541.4,341.1c-159.9,0-318.9,0-478.6,0c0-10.1-0.1-19.5,0.2-28.9c0-1.1,2.7-2.5,4.4-2.9
		c27.9-7.3,55.9-14.4,83.8-21.6c49-12.6,98-25.2,147-37.7c2.4-0.6,5.3-0.6,7.7,0c77,19.7,153.9,39.5,230.9,59.2
		c3.4,0.9,4.9,2.3,4.7,6C541.2,323.7,541.4,332.4,541.4,341.1z"/>
	<path class="st0" d="M500.9,546.4c-15.9,0-31.2,0-47.2,0c2.3-60.8,4.5-121.3,6.8-182.1c11.2,0,22.1,0,33.6,0
		C496.3,424.9,498.6,485.4,500.9,546.4z"/>
	<path class="st0" d="M110,363.1c10.8,0,20.6,0.1,30.4,0c3.3,0,3.3,1.9,3.4,4.2c0.3,8.3,0.6,16.6,0.9,24.9
		c1.1,32.3,2.2,64.5,3.3,96.8c0.7,18.6,1.5,37.2,2.3,56.3c-15.8,0-31.2,0-47.2,0C105.4,484.8,107.7,424.2,110,363.1z"/>
	<path class="st0" d="M413.2,546.2c-16.1,0-31.2,0-47.2,0c2.3-60.7,4.5-121.1,6.8-181.9c11.3,0,22.2,0,33.6,0
		C408.7,424.8,410.9,485.2,413.2,546.2z"/>
	<path class="st0" d="M231.1,363.3c2.3,61.2,4.6,121.6,6.9,182.2c-15.7,0-31,0-46.6,0c0-6.6-0.2-13.2,0-19.8
		c0.8-22.5,1.9-44.9,2.7-67.4c1.1-30.1,2.1-60.3,3.2-90.4c0.1-2.4-0.1-4.7,3.5-4.7C210.6,363.4,220.4,363.3,231.1,363.3z"/>
	<path class="st0" d="M325.6,545.7c-15.9,0-31.3,0-47.2,0c2.3-60.7,4.5-121,6.8-181.6c11.2,0,22.1,0,33.5,0
		C321,424.5,323.3,484.9,325.6,545.7z"/>
	<path class="st0" d="M98.3,344.2c19.3,0,37.5,0,57,0c-3.9,5.4-7.3,10.2-10.9,14.8c-0.5,0.7-2.1,0.7-3.2,0.8
		c-9.6,0.1-19.3,0.1-28.9,0c-1.3,0-3.1-0.5-3.9-1.4C105,354,102,349.5,98.3,344.2z"/>
	<path class="st0" d="M186.3,344.8c18.9,0,37.1,0,56.2,0c-3.6,5-6.5,9.4-9.8,13.5c-0.8,1-2.9,1.5-4.4,1.5
		c-9.3,0.1-18.6,0.2-27.9-0.1c-1.7,0-3.9-1-4.9-2.3C192.3,353.6,189.6,349.4,186.3,344.8z"/>
	<path class="st0" d="M449.4,345.2c18.8,0,36.7,0,55.6,0c-3.8,5.2-7.1,10-10.8,14.6c-0.7,0.9-2.7,0.9-4.1,0.9
		c-8.7,0.1-17.3,0.2-26-0.2c-1.9-0.1-4.3-1.4-5.6-2.9C455.4,353.9,452.7,349.7,449.4,345.2z"/>
	<path class="st0" d="M155.8,549.4c0,4,0,7.3,0,11c-19.4,0-38.6,0-58.2,0c0-3.5,0-7.1,0-11C116.9,549.4,136.1,549.4,155.8,549.4z"/>
	<path class="st0" d="M448.5,550.2c19.5,0,38.6,0,58,0c0,3.7,0,7.1,0,11c-19.2,0-38.4,0-58,0C448.5,557.7,448.5,554.1,448.5,550.2z"
		/>
	<path class="st0" d="M417.3,345.4c-3.4,4.7-6.2,8.9-9.5,12.9c-1,1.2-3,2.1-4.6,2.1c-9.2,0.1-18.3,0.1-27.5-0.2
		c-1.7-0.1-3.8-1.2-4.9-2.5c-3.1-3.7-5.7-7.8-8.9-12.2C380.5,345.4,398.4,345.4,417.3,345.4z"/>
	<path class="st0" d="M418.5,561.2c-19.4,0-38.4,0-57.9,0c0-3.7,0-7.1,0-10.9c19.1,0,38.3,0,57.9,0
		C418.5,553.8,418.5,557.3,418.5,561.2z"/>
	<path class="st0" d="M185.3,560.4c0-3.6,0-7,0-10.7c19.4,0,38.6,0,58.1,0c0,3.7,0,6.9,0,10.7C224.4,560.4,205.2,560.4,185.3,560.4z
		"/>
	<path class="st0" d="M274,344.9c19.1,0,37,0,56.1,0c-3.7,5.2-6.9,9.7-10.3,14.1c-0.6,0.8-2.4,1-3.6,1c-9.3,0-18.6,0.1-27.9-0.2
		c-1.9-0.1-4.2-1.5-5.5-3C279.7,353.3,277.1,349.3,274,344.9z"/>
	<path class="st0" d="M273.2,560.7c0-3.8,0-7,0-10.6c19.3,0,38.3,0,57.6,0c0,3.6,0,6.9,0,10.6C311.7,560.7,292.7,560.7,273.2,560.7z
		"/>
</g>
</svg>
