<?xml version="1.0" encoding="iso-8859-1"?>
<!-- Generator: Adobe Illustrator 19.1.0, SVG Export Plug-In . SVG Version: 6.00 Build 0)  -->
<svg version="1.1" id="Livello_1" xmlns="http://www.w3.org/2000/svg" xmlns:xlink="http://www.w3.org/1999/xlink" x="0px" y="0px"
	 viewBox="0 0 595.28 841.89" style="enable-background:new 0 0 595.28 841.89;" xml:space="preserve">
<g>
	<path style="fill:#45A805;" d="M147.679,388.487c-1.453-6.787-3.848-13.53-4.167-20.369c-0.7-15.001,7.375-26.423,22.945-32.125
		c8.515-3.118,17.713-4.369,26.598-6.484c2.744-0.653,5.831-0.808,8.096-2.242c1.962-1.242,4.364-4.198,4.069-5.984
		c-0.362-2.193-3.054-5.12-5.226-5.622c-2.972-0.687-6.625,0.023-9.6,1.152c-17.331,6.577-32.109,2.828-43.758-11.45
		c-2.211-2.71-4.323-5.513-6.682-8.088c-6.018-6.568-13.087-10.193-22.786-7.063c-1.39-12.204,0.989-23.143,7.773-33.106
		c17.82-26.173,56.342-27.657,76.335-2.971c0.924,1.14,2.004,2.438,3.291,2.928c1.64,0.625,4.249,1.31,5.202,0.505
		c1.341-1.133,2.648-4.203,2.01-5.397c-1.476-2.762-3.732-5.543-6.377-7.167c-10.328-6.339-16.144-15.47-18.265-27.2
		c-0.089-0.491-0.201-0.979-0.263-1.474c-0.996-8.03-0.181-9.305,7.982-9.565c12.897-0.41,25.831-2.282,38.643,1.524
		c9.13,2.712,17.23,7.229,23.935,13.683c8.72,8.393,16.688,17.568,25.574,27.039c15.444-3.536,31.204-0.712,45.683,7.716
		c21.436,12.477,31.987,31.491,32.152,56.363c0.033,4.89-2.033,5.963-6.345,5.364c-14.38-2-28.239-5.636-41.177-12.414
		c-2.637-1.381-5.366-2.624-8.148-3.681c-4.421-1.68-8.455-0.998-12.576,3.171c3.988,1.785,7.64,3.337,11.221,5.039
		c11.416,5.426,22.577,11.177,30.293,21.806c11.132,15.334,10.288,31.112-2.568,45.066c-8.563,9.295-28.506,23.954-37.629,27.465
		c-3.326-5.362-6.738-10.812-10.098-16.292c-6.321-10.311-12.568-20.668-18.934-30.951c-3.529-5.7-7.39-7.659-10.649-5.678
		c-3.394,2.063-3.458,6.781,0.463,12.423c10.555,15.187,12.592,31.552,4.789,48.062c-7.745,16.387-21.503,25.483-39.934,26.053
		c-7.099,0.22-14.235-1.204-21.365-1.368c-4.402-0.101-8.82,0.943-13.245,1.11c-1.893,0.071-4.423-0.15-5.642-1.312
		c-13.013-12.4-23.065-26.929-30.23-43.424c-0.376-0.865-0.245-1.951-0.35-2.934c0.719,0.612,1.437,1.224,2.454,2.089
		c-2.545-16.019,2.288-26.573,16.544-33.865c8.198-4.193,17.054-7.18,25.776-10.248c12.234-4.304,23.437-10.217,32.265-19.854
		c3.885-4.241,7.076-9.119,10.583-13.707c-0.387-0.305-0.774-0.61-1.161-0.915c-0.707,0.583-1.545,1.061-2.102,1.763
		c-10.707,13.519-24.641,22.094-40.96,27.23c-6.97,2.194-13.955,4.542-20.58,7.587C155.52,358.037,145.278,369.353,147.679,388.487z
		 M342.684,288.6c-4.5-4.44-10.273-5.277-15.977-4.422c-7.65,1.148-15.088,3.687-22.733,4.887
		c-11.46,1.798-22.798,1.284-24.806-15.205c-2.638,4.301-1.054,8.007,0.913,11.462c4.296,7.546,14.944,11.017,25.632,8.728
		c11.23-2.406,22.213-6.717,34.057-4.586c7.952,5.063,12.025,12.538,13.394,21.934c2.022-8.099-1.359-17.801-7.714-22.274
		C344.752,288.632,343.617,288.759,342.684,288.6z M182.798,423.224c0.29-1.336,0.55-2.68,0.876-4.008
		c1.262-5.142,2.219-10.386,3.878-15.398c6.808-20.57,19.755-37.435,33.245-53.891c13.487-16.451,26.736-32.998,35.555-52.621
		c6.463-14.381,12.458-29.056,22.509-41.618c-2.382,1.745-4.727,3.597-6.236,5.978c-6.563,10.354-13.321,20.623-19.188,31.37
		c-9.039,16.557-19.47,32.08-31.318,46.74c-11.154,13.801-22.114,27.795-29.967,43.859
		C186.079,396.055,182.024,409.029,182.798,423.224z M257.69,275.504c-0.614,0.469-1.231,0.935-1.842,1.409
		c-16.522,12.815-34.413,15.631-53.539,6.711c-7.635-3.561-14.893-7.957-22.209-12.169c-11.347-6.533-22.986-11.729-36.571-10.955
		c-10.806,0.616-21.253,7.646-23.99,17.182c-0.711,2.478-0.107,5.334-0.107,8.016c0.468,0.092,0.937,0.184,1.405,0.277
		c0.199-11.119,6.239-17.417,16.34-19.906c3.49-0.86,7.279-0.953,10.897-0.763c9.758,0.513,18.144,5.02,26.546,9.531
		c10.244,5.5,20.249,11.764,31.062,15.818C224.826,297.833,246.682,291.139,257.69,275.504z M215.84,424.356
		c7.689-3.419,11.893-9.724,14.82-17.1c3.877-9.77,4.294-20.012,4.053-30.332c-0.343-14.679,0.771-29.185,7.041-42.69
		c3.23-6.957,7.435-13.461,11.535-20.768c-13.609,10.873-19.982,25.25-22.306,41.158c-1.644,11.252-0.88,22.848-1.315,34.286
		C229.158,402.289,226.637,414.913,215.84,424.356z M193.995,218.729c3.2-3.349,7.308-4.673,11.194-2.588
		c4.869,2.612,9.506,5.951,13.572,9.703c7.84,7.234,9.791,17.316,12.063,27.203c1.573,6.848,4.02,13.347,10.354,17.45
		c7.704,4.991,19.349,2.533,22.326-4.713c-11.163,7.991-22.21,4.386-26.437-8.768c-1.107-3.447-1.681-7.071-2.409-10.632
		c-3.298-16.146-11.998-27.797-27.962-33.179C200.277,211.039,196.437,212.816,193.995,218.729z M262.543,297.207
		c0.322,2.046,0.507,4.125,0.99,6.132c1.989,8.259,7.28,14.521,13.182,20.113c10.876,10.304,17.832,22.431,19.828,37.42
		c1.543,11.585-1.147,17.858-10.573,22.907c6.084,0.858,11.566-3.056,13.452-10.811c3.859-15.873,0.07-30.281-9.934-42.998
		C280.806,318.931,266.801,312.175,262.543,297.207z M213.062,322.378c11.84,1.076,36.107-20.145,36.355-31.269
		C237.303,301.528,225.239,311.905,213.062,322.378z"/>
	<path style="fill:#8F00FF;stroke:#000000;stroke-miterlimit:10;" d="M406.696,407.635c0.197,18.327-10.902,33.012-27.35,36.187
		c-13.291,2.565-30.115-5.267-36.649-17.204c-0.64-1.17-0.851-2.863-0.599-4.188c2.09-10.965,1.676-21.493-4.471-31.301
		c-0.652-1.04-0.651-2.878-0.256-4.125c5.363-16.962,23.892-26.217,40.883-20.528C395.081,372.111,406.491,388.622,406.696,407.635z
		"/>
	<path style="fill:#8F00FF;stroke:#000000;stroke-miterlimit:10;" d="M286.842,396.927c2.417,3.77,4.451,6.944,6.81,10.624
		c2.071-1.16,4.142-2.104,5.978-3.384c8.05-5.614,16.24-11.06,23.938-17.128c3.149-2.483,5.093-1.996,7.63,0.192
		c6.311,5.44,9.013,12.53,9.827,20.617c2.305,22.882-15.426,49.375-36.695,54.696c-14.689,3.675-27.072-3.102-30.881-17.664
		C268.69,426.68,275.284,411.405,286.842,396.927z"/>
	<path style="fill:#8F00FF;stroke:#000000;stroke-miterlimit:10;" d="M349.148,443.287c7.324,0.026,13.616,2.778,19.182,7.361
		c15.554,12.805,19.827,37.355,9.317,53.388c-6.269,9.563-16.966,14.244-27.589,11.544c-2.64-0.671-4.987-2.777-7.275-4.482
		c-3.437-2.561-6.43-5.829-10.105-7.935c-6.093-3.492-9.621-10.407-7.963-17.342c1.361-5.69,1.058-11.205-1.361-16.613
		c-0.565-1.262-0.868-2.887-0.629-4.226C324.913,452.756,336.634,443.206,349.148,443.287z"/>
	<path style="fill:#8F00FF;stroke:#000000;stroke-miterlimit:10;" d="M290.571,539.859c0.694-13.558,5.201-24.349,15.604-32.238
		c11.504-8.723,26.843-6.414,35.564,5.352c11.919,16.081,6.684,42.539-10.458,52.861c-16.366,9.855-35.565,0.932-39.544-18.416
		C291.172,544.669,290.875,541.865,290.571,539.859z"/>
	<path style="fill:#8F00FF;stroke:#000000;stroke-miterlimit:10;" d="M380.609,503.928c8.508-20.657,6.066-34.89-8.604-53.257
		c0.72-0.948,1.356-2.697,2.287-2.872c9.906-1.863,18.628-10.068,30.066-3.796c16.919,9.278,27.18,31.146,22.115,49.712
		c-4.083,14.966-18.064,22.527-32.723,17.253C389.172,509.32,385.067,506.361,380.609,503.928z"/>
	<path style="fill:#8F00FF;stroke:#000000;stroke-miterlimit:10;" d="M398.295,436.72c24.573-29.724,2.915-74.639-33.441-74.375
		c6.901-7.56,14.99-11.352,24.403-11.456c17.784-0.197,30.96,8.325,39.668,23.427c8.784,15.233,9.877,31.098,0.43,46.466
		C422.49,431.949,411.921,436.985,398.295,436.72z"/>
	<path style="fill:#007203;" d="M334.645,387.197c-1.929-1.413-3.639-2.666-5.808-4.254c9.514-9.416,16.943-19.709,14.19-34.15
		c-2.568-13.472-10.701-22.963-21.791-30.733c2.2-3.589,4.543-4.616,8.943-3.449c9.127,2.421,18.508,5.234,27.79,5.252
		c6.37,0.012,8.779,3.058,11.619,6.86c5.126,6.862,8.69,14.483,10.138,21.543c-6.464,5.17-12.2,9.792-17.99,14.346
		c-0.743,0.585-1.737,0.916-2.665,1.19c-11.323,3.343-18.921,10.718-23.402,21.501C335.429,385.88,335.074,386.41,334.645,387.197z"
		/>
	<path style="fill:#8F00FF;stroke:#000000;stroke-miterlimit:10;" d="M335.548,575.237c0.093-8.097,2.721-15.052,9.91-19.389
		c6.666-4.022,13.414-3.019,19.642,1.197c6.52,4.414,10.28,10.834,11.422,18.505c0.551,3.702,0.526,7.734-0.341,11.352
		c-1.804,7.531-6.15,13.122-14.24,14.916c-7.874,1.746-13.974-1.612-19.054-7.039C337.823,589.369,335.395,582.739,335.548,575.237z
		"/>
	<path style="fill:#8F00FF;stroke:#000000;stroke-miterlimit:10;" d="M347.433,552.203c0.7-17.984,18.095-27.428,32.836-18.266
		c15.367,9.551,21.313,33.533,12.203,49.214c-3.691,6.354-9.42,10.077-16.446,10.363c4.306-10.41,3.952-20.482-2.157-29.924
		C367.663,553.999,358.865,549.879,347.433,552.203z"/>
	<path style="fill:#8F00FF;stroke:#000000;stroke-miterlimit:10;" d="M331.543,576.156c3.473,7.256,5.594,13.449,9.2,18.605
		c2.406,3.44,6.602,6.23,10.592,7.787c3.815,1.49,5.197,3.379,4.138,6.847c-1.723,5.641-2.938,11.767-6.072,16.578
		c-6.444,9.892-18.325,10.221-26.419,1.6c-10.494-11.177-11.455-32.612-1.485-44.216
		C324.219,580.188,328.449,578.314,331.543,576.156z"/>
	<path style="fill:#8F00FF;stroke:#000000;stroke-miterlimit:10;" d="M324.657,478.444c-1.26,14.106-12.321,26.305-25.811,27.759
		c-11.035,1.189-19.971-7.354-19.603-18.884c0.253-7.922,3.597-14.517,9.522-19.646c1.445-1.251,3.765-1.689,5.764-2.063
		c4.545-0.85,9.392-0.743,13.647-2.304c4.438-1.627,7.762-0.75,10.051,2.629C320.837,469.789,322.553,474.248,324.657,478.444z"/>
	<path style="fill:#8F00FF;stroke:#000000;stroke-miterlimit:10;" d="M272.657,452.108c4.957,4.427,9.83,8.778,14.946,13.346
		c-8.462,8.619-14.156,19.186-8.058,32.246c4.274,9.154,12.602,11.483,22.376,10.369c-5.69,9.337-14.016,12.544-23.963,11.167
		c-10.15-1.406-16.03-8.195-19.094-17.573C253.56,485.43,260.199,462.543,272.657,452.108z"/>
	<path style="fill:#007203;" d="M256.797,364.423c2.421-1.703,4.542-3.195,7.194-5.061c7.379,12.045,14.539,23.732,21.633,35.313
		c-15.443,23.264-15.956,25.032-14.91,51.406c-10.119-1.515-17.817-6.667-24.177-14.958c9.997-8.086,16.627-18.091,18.591-30.853
		C267.091,387.507,264.245,375.841,256.797,364.423z"/>
	<path style="fill:#8F00FF;stroke:#000000;stroke-miterlimit:10;" d="M379.846,506.981c6.359,2.454,13.073,5.019,19.758,7.656
		c0.885,0.349,1.724,0.965,2.417,1.631c11.336,10.89,14.233,32.719,5.798,45.696c-1.98,3.047-5.027,5.401-8.681,9.222
		c-0.452-21.236-7.227-36.6-26.725-42.967C374.924,521.044,377.495,513.697,379.846,506.981z"/>
	<path style="fill:#8F00FF;stroke:#000000;stroke-miterlimit:10;" d="M292.816,518.793c-1.43,6.734-3.418,12.454-3.745,18.267
		c-1.374,24.451,20.154,44.924,45.464,29.261c-0.293,4.782-1.527,8.155-6.729,9.726c-2.959,0.894-6.036,3.294-7.789,5.878
		c-3.399,5.008-8,5.457-13.103,4.975c-10.46-0.99-17.567-7.12-21.931-16.065c-7.929-16.254-6.598-32.207,3.3-47.353
		C289.334,521.872,290.987,520.655,292.816,518.793z"/>
	<path style="fill:#8F00FF;stroke:#000000;stroke-miterlimit:10;" d="M399.296,438.971c20.365,0.925,43.298-17.257,37.624-50.988
		c4.365,3.393,8.736,12.151,10.164,21.684c2.114,14.12-0.436,26.941-12.064,36.516c-2.511,2.067-5.649,3.492-8.683,4.777
		c-4.532,1.918-8.344,1.818-12.46-2.302C409.807,444.584,404.155,442.092,399.296,438.971z"/>
	<path style="fill:#8F00FF;stroke:#000000;stroke-miterlimit:10;" d="M315.326,588.65c-6.053,21.007-2.209,34.036,13.21,46.08
		c-5.145,5.333-12.429,6.487-18.892,2.823c-6.453-3.658-10.017-9.501-12.056-16.451c-3.042-10.367-2.39-20.398,2.883-29.911
		c0.642-1.158,2.326-2.306,3.623-2.426C307.68,588.434,311.316,588.65,315.326,588.65z"/>
	<path style="fill:#8F00FF;stroke:#000000;stroke-miterlimit:10;" d="M270.532,450.6c-19.596,21.536-22.616,57.548,3.225,70.634
		c-2.816,0.651-4.521,1.381-6.229,1.388c-13.249,0.056-23.092-9.377-25.354-24.134c-2.805-18.295,9.258-40.149,26.262-47.547
		C268.849,450.761,269.35,450.784,270.532,450.6z"/>
	<path style="fill:#8F00FF;stroke:#000000;stroke-miterlimit:10;" d="M286.333,521.409c-11.638,26.388-11.429,36.203,1.314,57.978
		c-6.66,0.081-11.697-2.627-15.717-7.222c-11.539-13.189-9.287-36.303,1.981-49.325c0.725-0.838,2.243-1.29,3.428-1.368
		C280.266,521.28,283.215,521.409,286.333,521.409z"/>
	<path style="fill:#8F00FF;stroke:#000000;stroke-miterlimit:10;" d="M429.392,473.745c6.798,13.212,8.797,26.882,2.382,40.923
		c-3.723,8.149-9.909,13.499-18.813,15.096c-2.931-5.108-5.63-9.812-8.332-14.522C425.249,509.343,432.309,497.328,429.392,473.745z
		"/>
	<path style="fill:#FFFFFF;" d="M147.679,388.487c-2.401-19.134,7.841-30.45,23.862-37.813c6.626-3.045,13.61-5.393,20.58-7.587
		c16.319-5.136,30.253-13.711,40.96-27.23c0.556-0.702,1.395-1.181,2.102-1.763c0.387,0.305,0.774,0.61,1.161,0.915
		c-3.506,4.589-6.697,9.466-10.583,13.707c-8.828,9.637-20.031,15.55-32.265,19.854c-8.722,3.069-17.578,6.055-25.776,10.248
		c-14.257,7.293-19.09,17.846-16.544,33.865c-1.017-0.865-1.735-1.477-2.454-2.089C148.375,389.893,148.027,389.19,147.679,388.487z
		 M160.556,359.857c8.799-3.635,17.274-7.197,25.798-10.641c8.382-3.386,16.813-6.652,25.222-9.971
		c-0.245-0.582-0.49-1.164-0.736-1.746C194.885,346.57,175.389,347.585,160.556,359.857z"/>
	<path style="fill:#9E5E00;" d="M334.723,258.123c-3.83-2.152-6.849-3.849-10.616-5.966c1.943-10.907,3.773-21.983,5.968-32.987
		c0.607-3.041,2.266-5.879,3.508-8.783c0.976-2.283,2.376-3.668,4.983-1.981c2.252,1.458,5.573,2.132,3.569,6.199
		c-6.194,12.573-7.482,26.091-7.412,39.847C334.727,255.432,334.723,256.412,334.723,258.123z"/>
	<path style="fill:#8F00FF;stroke:#000000;stroke-miterlimit:10;" d="M350.693,535.199c-1.032-5.742-2.073-11.535-3.177-17.68
		c10.555,2.709,20.16-0.027,29.234-6.966c-1.241,3.531-2.299,7.14-3.771,10.572c-1.821,4.246-4.453,7.025-9.726,7.933
		C358.838,529.818,354.851,533.063,350.693,535.199z"/>
	<path style="fill:#9E5E00;" d="M400.845,350.948c-4.064-17.457-13.04-30.441-30.176-38.17c2.391,7.232,4.39,13.279,6.389,19.325
		c-0.303,0.112-0.605,0.224-0.908,0.336c-4.847-10.3-9.694-20.601-14.542-30.901c3.631,7.159,11.036,9.12,17.098,12.887
		c11.506,7.149,19.066,17.36,22.695,30.431c0.398,1.433,0.596,2.926,0.818,4.401C402.248,349.454,401.87,349.711,400.845,350.948z"
		/>
	<path style="fill:#9E5E00;" d="M326.306,225.862c-1.045,1.075-1.92,2.802-3.161,3.125c-12.726,3.314-24.206,9.058-34.602,17.061
		c-0.462,0.356-1.163,0.401-1.954,0.186c10.857-10.728,23.897-17.527,38.48-21.582C325.482,225.055,325.894,225.458,326.306,225.862
		z"/>
	<path style="fill:#8F00FF;stroke:#000000;stroke-miterlimit:10;" d="M343.116,441.034c-4.403,2.165-8.23,4.048-12.227,6.014
		c2.976-5.238,5.939-10.453,9.184-16.166C341.135,434.427,342.123,437.722,343.116,441.034z"/>
	<path style="fill:#007203;" d="M255.645,362.591c-2.207-3.292-3.541-6.599-0.523-8.837c3.558-2.639,5.37,1.163,7.81,3.633
		C260.52,359.11,258.301,360.694,255.645,362.591z"/>
	<path style="fill:#8F00FF;stroke:#000000;stroke-miterlimit:10;" d="M353.735,440.948c-9.105,0.762-9.502,0.412-10.683-9.447
		C346.671,434.702,350.157,437.785,353.735,440.948z"/>
	<path style="fill:#8F00FF;stroke:#000000;stroke-miterlimit:10;" d="M322.13,492.94c1.296,2.618,2.382,4.814,3.781,7.64
		c-2.099,0-3.663-0.05-5.222,0.015c-1.46,0.061-2.915,0.244-4.905,0.42C317.94,498.271,319.836,495.858,322.13,492.94z"/>
	<path style="fill:#9E5E00;" d="M363.055,309.007c2.093,4.186,3.966,7.932,6.206,12.411
		C361.605,316.441,361.14,315.507,363.055,309.007z"/>
	<path style="fill:#9E5E00;" d="M160.556,359.857c14.833-12.272,34.329-13.287,50.284-22.358c0.245,0.582,0.49,1.164,0.736,1.746
		c-8.409,3.319-16.84,6.584-25.222,9.971C177.83,352.659,169.355,356.222,160.556,359.857z"/>
	<path style="fill:#9E5E00;" d="M251.562,303.13c-14.107,27.016-35.297,47.179-51.15,71.2c-0.448-0.327-0.896-0.654-1.345-0.981
		C216.314,350.279,233.561,327.208,251.562,303.13z"/>
	<path style="fill:#9E5E00;" d="M223.913,290.94c-11.815,1.075-22.254-2.997-32.249-8.551c-6.391-3.552-12.45-7.771-19.041-10.877
		c-7.861-3.705-16.133-6.54-24.163-9.727c4.827,1.114,10.251,1.536,14.933,3.624c8.771,3.911,17.267,8.52,25.595,13.328
		C199.894,285.034,211.056,290.298,223.913,290.94z"/>
	<path style="fill:#9E5E00;" d="M231.091,398.753c1.936-19.771-3.181-40.199,6.356-59.1
		C230.248,358.875,235.084,379.293,231.091,398.753z"/>
	<path style="fill:#9E5E00;" d="M237.066,265.436c-1.731-5-3.851-9.903-5.119-15.018c-3.923-15.815-4.632-17.496-14.852-29.213
		c5.953,2.698,12.109,11.043,14.565,20.057c1.091,4.006,1.688,8.148,2.802,12.146c1.09,3.913,2.553,7.722,3.853,11.577
		C237.898,265.136,237.482,265.286,237.066,265.436z"/>
	<path style="fill:#9E5E00;" d="M298.541,363.089c-1.286-18.091-10.366-31.935-24.594-44.34
		C288.47,325.226,300.036,346.544,298.541,363.089z"/>
	<path style="fill:#9E5E00;" d="M342.782,288.496c-1.037,0.364-2.073,0.727-3.11,1.091c-5.122-0.557-10.317-1.919-15.348-1.464
		c-6.056,0.548-11.916,3.012-17.97,3.937c-4.271,0.653-8.722,0.126-12.916,0.625c8.375-1.829,16.8-3.458,25.111-5.542
		C326.835,285.065,334.884,284.805,342.782,288.496z"/>
	<path style="fill:#9E5E00;" d="M243.105,301.49c-5.865,5.17-11.73,10.339-17.595,15.509c-0.364-0.408-0.727-0.816-1.091-1.224
		c5.877-5.117,11.754-10.234,17.631-15.351C242.402,300.78,242.753,301.135,243.105,301.49z"/>
</g>
<line style="display:none;fill:none;stroke:#000000;stroke-width:3;stroke-miterlimit:10;" x1="0" y1="0" x2="595.28" y2="841.89"/>
<line style="display:none;fill:none;stroke:#000000;stroke-width:3;stroke-miterlimit:10;" x1="595.28" y1="0" x2="0" y2="841.89"/>
</svg>
